<svg xmlns="http://www.w3.org/2000/svg" xmlns:xlink="http://www.w3.org/1999/xlink" width="500" zoomAndPan="magnify" viewBox="0 0 375 374.999991" height="500" preserveAspectRatio="xMidYMid meet" version="1.0">
    <defs>
        <clipPath id="890751bf5b">
            <path d="M 49.242188 177 L 264 177 L 264 328.597656 L 49.242188 328.597656 Z M 49.242188 177 " clip-rule="nonzero"/>
        </clipPath>
        <clipPath id="3a59256421"><path d="M 111 46.597656 L 325.992188 46.597656 L 325.992188 198 L 111 198 Z M 111 46.597656 " clip-rule="nonzero"/>
        </clipPath>
    </defs>
<g clip-path="url(#890751bf5b)">
    <path fill="#00bf63" d="M 49.851562 177.546875 C 49.851562 177.546875 49.8125 178.414062 49.742188 180.058594 C 49.707031 180.878906 49.664062 181.894531 49.617188 183.09375 C 49.578125 184.292969 49.617188 185.675781 49.621094 187.230469 C 49.683594 195.96875 50.589844 204.617188 52.339844 213.179688 C 52.625 214.519531 52.875 215.898438 53.207031 217.289062 C 53.5625 218.675781 53.925781 220.089844 54.292969 221.53125 C 54.488281 222.25 54.648438 222.988281 54.875 223.710938 C 55.101562 224.433594 55.324219 225.167969 55.550781 225.90625 C 55.78125 226.640625 56.007812 227.386719 56.242188 228.136719 C 56.476562 228.886719 56.695312 229.648438 56.980469 230.394531 C 57.523438 231.894531 58.074219 233.421875 58.636719 234.96875 C 58.902344 235.75 59.234375 236.507812 59.550781 237.28125 C 59.875 238.050781 60.195312 238.828125 60.523438 239.609375 C 60.851562 240.390625 61.179688 241.175781 61.511719 241.964844 C 61.878906 242.742188 62.246094 243.519531 62.617188 244.304688 C 62.992188 245.089844 63.363281 245.878906 63.742188 246.675781 C 63.929688 247.070312 64.121094 247.46875 64.308594 247.867188 C 64.519531 248.257812 64.726562 248.648438 64.9375 249.042969 C 65.773438 250.609375 66.613281 252.199219 67.480469 253.792969 C 68.414062 255.351562 69.351562 256.925781 70.300781 258.515625 C 70.761719 259.320312 71.296875 260.082031 71.804688 260.867188 C 72.324219 261.644531 72.839844 262.425781 73.363281 263.210938 C 74.371094 264.800781 75.535156 266.304688 76.660156 267.851562 C 81.347656 274.171875 86.53125 280.050781 92.21875 285.488281 C 103.785156 296.597656 117.886719 305.808594 132.96875 312.179688 C 134.867188 312.953125 136.726562 313.800781 138.664062 314.445312 C 139.625 314.789062 140.585938 315.132812 141.542969 315.476562 C 142.503906 315.8125 143.449219 316.179688 144.429688 316.453125 C 146.371094 317.039062 148.3125 317.621094 150.242188 318.203125 C 152.203125 318.6875 154.152344 319.171875 156.097656 319.652344 C 163.777344 321.371094 171.546875 322.429688 179.402344 322.820312 C 180.359375 322.863281 181.3125 322.902344 182.261719 322.941406 C 182.738281 322.960938 183.210938 322.980469 183.683594 323 C 184.15625 322.996094 184.628906 322.992188 185.101562 322.988281 C 186.988281 322.964844 188.859375 322.976562 190.710938 322.925781 C 192.5625 322.816406 194.394531 322.714844 196.214844 322.609375 L 196.894531 322.570312 L 197.570312 322.5 C 198.019531 322.449219 198.46875 322.402344 198.917969 322.355469 C 199.8125 322.261719 200.703125 322.164062 201.589844 322.070312 C 203.363281 321.917969 205.101562 321.609375 206.824219 321.34375 C 207.683594 321.210938 208.539062 321.074219 209.390625 320.941406 C 209.816406 320.882812 210.234375 320.796875 210.65625 320.707031 C 211.074219 320.621094 211.492188 320.535156 211.90625 320.449219 C 212.738281 320.277344 213.566406 320.109375 214.386719 319.9375 C 214.796875 319.851562 215.207031 319.769531 215.613281 319.683594 C 216.023438 319.601562 216.429688 319.515625 216.828125 319.40625 C 218.429688 318.996094 220.007812 318.589844 221.5625 318.1875 C 221.949219 318.085938 222.339844 317.992188 222.722656 317.882812 C 223.101562 317.765625 223.480469 317.648438 223.859375 317.53125 C 224.613281 317.296875 225.363281 317.066406 226.105469 316.835938 C 226.847656 316.605469 227.585938 316.378906 228.316406 316.152344 C 228.683594 316.042969 229.042969 315.917969 229.394531 315.785156 C 229.753906 315.65625 230.105469 315.527344 230.460938 315.402344 C 231.871094 314.886719 233.253906 314.386719 234.613281 313.890625 C 235.960938 313.363281 237.257812 312.796875 238.539062 312.265625 C 239.179688 312 239.8125 311.734375 240.4375 311.472656 C 241.066406 311.222656 241.660156 310.90625 242.261719 310.628906 C 243.457031 310.0625 244.625 309.503906 245.765625 308.964844 C 246.050781 308.828125 246.332031 308.695312 246.613281 308.558594 C 246.890625 308.421875 247.160156 308.269531 247.433594 308.125 C 247.972656 307.835938 248.507812 307.550781 249.035156 307.269531 C 250.085938 306.703125 251.105469 306.15625 252.097656 305.625 C 253.101562 305.0625 254.152344 304.40625 255.226562 303.84375 C 256.242188 303.292969 257.292969 302.820312 258.382812 302.429688 C 260.363281 301.679688 262.136719 301.628906 263.160156 303.183594 C 264.183594 304.742188 263.367188 306.363281 261.765625 307.925781 C 260.855469 308.726562 259.882812 309.441406 258.84375 310.070312 C 257.757812 310.742188 256.632812 311.402344 255.558594 311.96875 C 254.503906 312.5 253.410156 313.046875 252.289062 313.613281 C 251.726562 313.894531 251.15625 314.179688 250.578125 314.46875 C 250.289062 314.609375 250 314.761719 249.703125 314.898438 C 249.40625 315.035156 249.105469 315.167969 248.800781 315.300781 C 247.589844 315.839844 246.347656 316.390625 245.074219 316.957031 C 244.433594 317.230469 243.800781 317.542969 243.132812 317.792969 C 242.46875 318.050781 241.796875 318.3125 241.117188 318.574219 C 239.757812 319.097656 238.378906 319.652344 236.953125 320.171875 C 235.515625 320.652344 234.050781 321.144531 232.558594 321.640625 C 232.183594 321.765625 231.808594 321.890625 231.433594 322.015625 C 231.054688 322.144531 230.675781 322.269531 230.289062 322.371094 C 229.519531 322.589844 228.742188 322.808594 227.957031 323.03125 C 227.171875 323.25 226.382812 323.472656 225.585938 323.699219 C 225.1875 323.808594 224.785156 323.921875 224.386719 324.035156 C 223.980469 324.136719 223.570312 324.226562 223.164062 324.324219 C 221.523438 324.699219 219.863281 325.082031 218.175781 325.472656 C 217.757812 325.574219 217.328125 325.652344 216.902344 325.730469 C 216.472656 325.808594 216.042969 325.886719 215.609375 325.964844 C 214.746094 326.117188 213.878906 326.277344 213.003906 326.433594 C 212.570312 326.511719 212.128906 326.589844 211.691406 326.667969 C 211.25 326.75 210.8125 326.828125 210.363281 326.878906 C 209.472656 326.996094 208.574219 327.117188 207.671875 327.234375 C 205.871094 327.464844 204.050781 327.738281 202.191406 327.855469 C 201.265625 327.929688 200.335938 328.003906 199.398438 328.082031 C 198.929688 328.121094 198.460938 328.15625 197.992188 328.195312 L 197.285156 328.25 L 196.574219 328.273438 C 194.679688 328.335938 192.769531 328.398438 190.839844 328.460938 C 188.90625 328.46875 186.960938 328.410156 185 328.382812 C 184.511719 328.375 184.019531 328.363281 183.527344 328.355469 C 183.035156 328.324219 182.542969 328.292969 182.050781 328.261719 C 181.066406 328.195312 180.074219 328.128906 179.082031 328.0625 C 170.949219 327.457031 162.925781 326.164062 155.011719 324.1875 C 153.015625 323.640625 151.011719 323.089844 149 322.539062 C 147.019531 321.890625 145.035156 321.242188 143.042969 320.589844 C 142.042969 320.28125 141.070312 319.878906 140.089844 319.507812 C 139.113281 319.128906 138.132812 318.753906 137.152344 318.375 C 135.175781 317.660156 133.273438 316.742188 131.34375 315.898438 C 115.972656 308.964844 101.753906 299.160156 90.21875 287.539062 C 84.558594 281.859375 79.421875 275.746094 74.804688 269.195312 C 73.695312 267.59375 72.554688 266.039062 71.5625 264.398438 C 71.054688 263.589844 70.546875 262.78125 70.042969 261.980469 C 69.542969 261.175781 69.019531 260.390625 68.570312 259.5625 C 67.648438 257.925781 66.734375 256.308594 65.828125 254.703125 C 64.984375 253.066406 64.175781 251.4375 63.363281 249.828125 C 63.160156 249.425781 62.960938 249.027344 62.757812 248.625 C 62.578125 248.21875 62.394531 247.808594 62.210938 247.402344 C 61.851562 246.589844 61.492188 245.785156 61.132812 244.980469 C 60.777344 244.179688 60.421875 243.378906 60.070312 242.589844 C 59.753906 241.78125 59.4375 240.976562 59.125 240.179688 C 58.816406 239.382812 58.507812 238.589844 58.203125 237.804688 C 57.898438 237.019531 57.582031 236.242188 57.332031 235.449219 C 56.804688 233.871094 56.285156 232.320312 55.769531 230.792969 C 55.5 230.03125 55.296875 229.257812 55.078125 228.496094 C 54.863281 227.734375 54.648438 226.976562 54.4375 226.230469 C 54.226562 225.480469 54.019531 224.738281 53.808594 224 C 53.597656 223.265625 53.453125 222.519531 53.277344 221.792969 C 52.9375 220.332031 52.605469 218.898438 52.28125 217.492188 C 51.980469 216.085938 51.761719 214.691406 51.503906 213.335938 C 49.953125 204.703125 49.25 196 49.390625 187.230469 C 49.425781 185.675781 49.417969 184.289062 49.484375 183.089844 C 49.5625 181.890625 49.628906 180.875 49.683594 180.054688 Z M 49.851562 177.546875 " fill-opacity="1" fill-rule="nonzero"/>
</g>
<path fill="#5271ff" d="M 70.0625 147.203125 C 70.0625 147.203125 69.835938 147.953125 69.410156 149.371094 C 69.199219 150.082031 68.933594 150.957031 68.621094 151.992188 C 68.472656 152.511719 68.277344 153.0625 68.132812 153.664062 C 67.984375 154.269531 67.828125 154.910156 67.660156 155.589844 C 65.679688 163.199219 64.472656 170.925781 64.042969 178.777344 C 63.992188 180.007812 63.9375 181.265625 63.886719 182.554688 C 63.804688 183.835938 63.839844 185.152344 63.847656 186.492188 C 63.855469 187.160156 63.859375 187.835938 63.867188 188.519531 C 63.867188 188.859375 63.871094 189.203125 63.875 189.546875 L 63.878906 190.0625 L 63.910156 190.582031 C 63.988281 191.96875 64.070312 193.378906 64.15625 194.8125 C 64.175781 195.171875 64.195312 195.53125 64.214844 195.890625 C 64.234375 196.253906 64.289062 196.613281 64.324219 196.976562 C 64.402344 197.703125 64.480469 198.433594 64.558594 199.167969 C 64.722656 200.640625 64.847656 202.136719 65.117188 203.636719 C 65.359375 205.140625 65.582031 206.667969 65.84375 208.207031 C 66.164062 209.738281 66.484375 211.285156 66.808594 212.851562 C 68.289062 219.351562 70.261719 225.699219 72.730469 231.894531 C 73.0625 232.6875 73.394531 233.484375 73.730469 234.285156 L 74.230469 235.484375 C 74.398438 235.886719 74.558594 236.292969 74.757812 236.679688 C 75.507812 238.257812 76.261719 239.84375 77.019531 241.4375 C 77.851562 242.996094 78.6875 244.5625 79.53125 246.140625 L 79.84375 246.730469 C 79.953125 246.925781 80.074219 247.113281 80.1875 247.308594 L 80.878906 248.460938 C 81.339844 249.230469 81.800781 250 82.265625 250.773438 C 86.113281 256.992188 90.484375 262.828125 95.367188 268.273438 C 100.300781 273.773438 105.691406 278.789062 111.535156 283.316406 L 113.738281 284.96875 C 114.480469 285.507812 115.1875 286.097656 115.960938 286.589844 C 117.488281 287.609375 118.992188 288.644531 120.515625 289.648438 C 122.074219 290.59375 123.628906 291.53125 125.183594 292.472656 C 126.761719 293.363281 128.367188 294.191406 129.945312 295.054688 C 136.234375 298.28125 142.75 300.960938 149.488281 303.101562 C 156.042969 305.230469 162.605469 306.597656 168.929688 307.511719 C 172.089844 308.03125 175.214844 308.230469 178.25 308.511719 C 181.296875 308.617188 184.261719 308.808594 187.144531 308.714844 C 190.027344 308.75 192.8125 308.503906 195.503906 308.363281 C 196.84375 308.261719 198.15625 308.082031 199.449219 307.953125 C 200.09375 307.882812 200.730469 307.816406 201.363281 307.746094 C 201.996094 307.691406 202.613281 307.558594 203.226562 307.46875 C 204.457031 307.277344 205.65625 307.085938 206.832031 306.898438 C 207.421875 306.820312 207.996094 306.695312 208.5625 306.574219 C 209.132812 306.457031 209.691406 306.335938 210.246094 306.222656 C 211.351562 305.984375 212.433594 305.777344 213.480469 305.539062 C 214.515625 305.265625 215.523438 305.003906 216.5 304.75 C 217 304.621094 217.519531 304.492188 218.046875 304.359375 C 218.3125 304.296875 218.574219 304.234375 218.84375 304.171875 C 219.105469 304.101562 219.371094 304.035156 219.632812 303.964844 C 220.636719 303.695312 221.65625 303.523438 222.695312 303.445312 C 223.570312 303.371094 224.421875 303.492188 225.242188 303.808594 C 225.609375 303.980469 225.929688 304.21875 226.199219 304.523438 C 226.46875 304.828125 226.667969 305.171875 226.792969 305.558594 C 226.917969 305.949219 226.960938 306.34375 226.921875 306.75 C 226.882812 307.152344 226.765625 307.53125 226.566406 307.886719 C 226.164062 308.582031 225.449219 309.125 224.570312 309.621094 C 223.601562 310.140625 222.59375 310.566406 221.550781 310.902344 C 221.277344 310.992188 221 311.089844 220.722656 311.167969 C 220.441406 311.238281 220.164062 311.308594 219.882812 311.378906 C 219.324219 311.507812 218.769531 311.640625 218.234375 311.761719 C 217.195312 312 216.121094 312.246094 215.011719 312.5 C 213.898438 312.71875 212.746094 312.910156 211.570312 313.125 C 210.980469 313.230469 210.382812 313.335938 209.78125 313.445312 C 209.175781 313.554688 208.566406 313.667969 207.9375 313.734375 C 206.691406 313.894531 205.417969 314.058594 204.113281 314.226562 C 203.460938 314.300781 202.804688 314.417969 202.132812 314.460938 C 201.464844 314.515625 200.789062 314.566406 200.105469 314.621094 C 198.742188 314.71875 197.351562 314.863281 195.933594 314.933594 C 193.09375 315.003906 190.152344 315.175781 187.121094 315.054688 C 184.085938 315.066406 180.96875 314.78125 177.773438 314.578125 C 174.59375 314.195312 171.324219 313.890625 168.027344 313.257812 C 161.425781 312.113281 154.609375 310.488281 147.839844 308.085938 C 140.894531 305.671875 134.195312 302.699219 127.746094 299.164062 C 126.128906 298.226562 124.488281 297.320312 122.878906 296.351562 C 121.296875 295.335938 119.710938 294.316406 118.121094 293.296875 C 116.570312 292.214844 115.039062 291.097656 113.496094 290 C 112.710938 289.46875 111.992188 288.84375 111.242188 288.261719 L 109.007812 286.492188 C 103.160156 281.703125 97.78125 276.429688 92.875 270.675781 C 87.96875 264.921875 83.613281 258.777344 79.808594 252.246094 C 79.355469 251.441406 78.90625 250.640625 78.457031 249.839844 L 77.78125 248.644531 C 77.667969 248.445312 77.554688 248.246094 77.445312 248.046875 L 77.140625 247.433594 C 76.324219 245.800781 75.511719 244.179688 74.707031 242.566406 C 73.976562 240.917969 73.25 239.28125 72.527344 237.652344 C 72.335938 237.25 72.183594 236.832031 72.023438 236.417969 L 71.542969 235.179688 C 71.226562 234.355469 70.90625 233.535156 70.589844 232.71875 C 68.25 226.359375 66.414062 219.859375 65.085938 213.214844 C 64.800781 211.617188 64.515625 210.039062 64.238281 208.480469 C 64.007812 206.914062 63.828125 205.363281 63.621094 203.835938 C 63.390625 202.3125 63.300781 200.792969 63.175781 199.300781 C 63.117188 198.554688 63.058594 197.8125 62.996094 197.078125 C 62.972656 196.710938 62.925781 196.34375 62.917969 195.980469 C 62.90625 195.613281 62.894531 195.25 62.882812 194.886719 C 62.839844 193.4375 62.792969 192.011719 62.75 190.609375 L 62.730469 190.085938 L 62.742188 189.5625 C 62.746094 189.214844 62.753906 188.871094 62.761719 188.527344 C 62.773438 187.839844 62.785156 187.15625 62.796875 186.480469 C 62.820312 185.132812 62.824219 183.808594 62.941406 182.515625 C 63.027344 181.21875 63.113281 179.953125 63.195312 178.714844 C 63.835938 170.847656 65.25 163.117188 67.441406 155.53125 C 67.625 154.855469 67.800781 154.21875 67.964844 153.617188 C 68.125 153.015625 68.332031 152.472656 68.496094 151.957031 C 68.835938 150.929688 69.121094 150.058594 69.355469 149.355469 C 69.816406 147.945312 70.0625 147.203125 70.0625 147.203125 Z M 70.0625 147.203125 " fill-opacity="1" fill-rule="nonzero"/>
<g clip-path="url(#3a59256421)">
    <path fill="#8c52ff" d="M 325.402344 197.644531 C 325.402344 197.644531 325.4375 196.777344 325.507812 195.132812 C 325.542969 194.3125 325.585938 193.296875 325.636719 192.097656 C 325.675781 190.898438 325.632812 189.511719 325.632812 187.960938 C 325.570312 179.222656 324.664062 170.574219 322.914062 162.011719 C 322.628906 160.671875 322.375 159.292969 322.046875 157.902344 C 321.691406 156.515625 321.328125 155.101562 320.957031 153.65625 C 320.761719 152.941406 320.605469 152.203125 320.375 151.480469 C 320.152344 150.753906 319.925781 150.023438 319.699219 149.285156 C 319.472656 148.546875 319.242188 147.804688 319.011719 147.054688 C 318.777344 146.304688 318.558594 145.542969 318.273438 144.796875 C 317.730469 143.296875 317.175781 141.769531 316.617188 140.222656 C 316.351562 139.441406 316.019531 138.679688 315.699219 137.910156 C 315.378906 137.140625 315.054688 136.363281 314.730469 135.582031 C 314.402344 134.800781 314.074219 134.015625 313.742188 133.222656 C 313.375 132.449219 313.003906 131.667969 312.632812 130.882812 C 312.261719 130.097656 311.886719 129.308594 311.511719 128.515625 C 311.320312 128.117188 311.132812 127.722656 310.941406 127.324219 C 310.734375 126.933594 310.527344 126.542969 310.316406 126.148438 C 309.476562 124.582031 308.640625 122.992188 307.769531 121.398438 C 306.839844 119.839844 305.898438 118.261719 304.953125 116.671875 C 304.492188 115.867188 303.957031 115.105469 303.445312 114.324219 C 302.929688 113.546875 302.410156 112.765625 301.890625 111.980469 C 300.878906 110.390625 299.714844 108.886719 298.589844 107.339844 C 293.90625 101.015625 288.722656 95.136719 283.035156 89.703125 C 271.46875 78.59375 257.367188 69.382812 242.28125 63.011719 C 240.386719 62.238281 238.523438 61.390625 236.585938 60.746094 L 233.710938 59.714844 C 232.75 59.378906 231.800781 59.011719 230.824219 58.738281 C 228.878906 58.152344 226.941406 57.570312 225.007812 56.988281 C 223.050781 56.503906 221.097656 56.019531 219.152344 55.539062 C 211.476562 53.816406 203.707031 52.761719 195.847656 52.367188 C 194.890625 52.328125 193.9375 52.289062 192.988281 52.25 C 192.515625 52.230469 192.042969 52.210938 191.566406 52.191406 C 191.09375 52.195312 190.621094 52.199219 190.152344 52.203125 C 188.265625 52.222656 186.394531 52.210938 184.542969 52.265625 C 182.691406 52.371094 180.855469 52.476562 179.039062 52.582031 L 178.359375 52.621094 L 177.683594 52.691406 C 177.234375 52.738281 176.785156 52.785156 176.335938 52.835938 C 175.441406 52.929688 174.550781 53.023438 173.664062 53.121094 C 171.886719 53.273438 170.152344 53.582031 168.429688 53.84375 C 167.570312 53.980469 166.714844 54.113281 165.863281 54.246094 C 165.4375 54.308594 165.015625 54.394531 164.597656 54.480469 C 164.179688 54.566406 163.761719 54.65625 163.347656 54.738281 C 162.515625 54.910156 161.6875 55.082031 160.867188 55.253906 C 160.457031 55.335938 160.046875 55.421875 159.640625 55.507812 C 159.230469 55.589844 158.824219 55.671875 158.425781 55.78125 C 156.824219 56.195312 155.246094 56.601562 153.691406 57.003906 C 153.300781 57.105469 152.914062 57.199219 152.53125 57.308594 C 152.148438 57.425781 151.769531 57.542969 151.394531 57.660156 C 150.636719 57.890625 149.886719 58.125 149.144531 58.355469 C 148.402344 58.582031 147.667969 58.8125 146.9375 59.039062 C 146.570312 59.144531 146.210938 59.269531 145.855469 59.402344 C 145.5 59.53125 145.144531 59.660156 144.792969 59.789062 C 143.382812 60.300781 141.996094 60.804688 140.636719 61.296875 C 139.292969 61.828125 137.992188 62.394531 136.710938 62.921875 C 136.074219 63.191406 135.441406 63.457031 134.816406 63.71875 C 134.183594 63.96875 133.59375 64.285156 132.988281 64.558594 C 131.792969 65.128906 130.625 65.683594 129.488281 66.226562 C 129.203125 66.363281 128.921875 66.496094 128.640625 66.628906 C 128.359375 66.769531 128.089844 66.921875 127.820312 67.0625 C 127.277344 67.355469 126.746094 67.640625 126.21875 67.921875 C 125.167969 68.484375 124.144531 69.03125 123.15625 69.566406 C 122.152344 70.128906 121.097656 70.78125 120.027344 71.34375 C 119.011719 71.898438 117.957031 72.371094 116.871094 72.761719 C 114.890625 73.507812 113.113281 73.5625 112.09375 72.003906 C 111.070312 70.449219 111.882812 68.828125 113.488281 67.265625 C 114.398438 66.460938 115.371094 65.746094 116.410156 65.121094 C 117.492188 64.449219 118.621094 63.789062 119.691406 63.222656 C 120.75 62.691406 121.839844 62.144531 122.964844 61.578125 C 123.527344 61.296875 124.097656 61.011719 124.671875 60.722656 C 124.964844 60.578125 125.25 60.429688 125.546875 60.289062 C 125.847656 60.15625 126.148438 60.023438 126.449219 59.886719 C 127.664062 59.351562 128.90625 58.796875 130.179688 58.234375 C 130.820312 57.960938 131.449219 57.644531 132.121094 57.398438 C 132.785156 57.140625 133.453125 56.878906 134.132812 56.617188 C 135.492188 56.09375 136.871094 55.539062 138.296875 55.019531 C 139.734375 54.539062 141.203125 54.046875 142.695312 53.546875 C 143.070312 53.421875 143.445312 53.296875 143.820312 53.171875 C 144.195312 53.042969 144.574219 52.921875 144.964844 52.820312 C 145.734375 52.601562 146.511719 52.382812 147.296875 52.160156 C 148.082031 51.941406 148.871094 51.71875 149.667969 51.492188 C 150.066406 51.382812 150.464844 51.269531 150.867188 51.15625 C 151.269531 51.050781 151.679688 50.964844 152.089844 50.867188 C 153.726562 50.488281 155.390625 50.105469 157.078125 49.71875 C 157.496094 49.613281 157.921875 49.535156 158.351562 49.460938 C 158.78125 49.382812 159.210938 49.304688 159.640625 49.226562 C 160.503906 49.070312 161.371094 48.914062 162.246094 48.757812 C 162.683594 48.679688 163.121094 48.601562 163.5625 48.519531 C 164 48.441406 164.441406 48.363281 164.890625 48.308594 C 165.78125 48.191406 166.675781 48.074219 167.578125 47.957031 C 169.382812 47.726562 171.203125 47.453125 173.058594 47.335938 C 173.988281 47.261719 174.917969 47.183594 175.855469 47.109375 C 176.320312 47.070312 176.789062 47.03125 177.261719 46.996094 L 177.96875 46.941406 L 178.675781 46.914062 C 180.570312 46.855469 182.484375 46.792969 184.414062 46.730469 C 186.34375 46.722656 188.292969 46.78125 190.253906 46.808594 C 190.742188 46.816406 191.234375 46.824219 191.726562 46.835938 C 192.21875 46.867188 192.710938 46.898438 193.203125 46.929688 C 194.1875 46.996094 195.175781 47.0625 196.171875 47.125 C 204.304688 47.734375 212.328125 49.027344 220.242188 51.003906 C 222.238281 51.550781 224.242188 52.101562 226.253906 52.652344 L 232.210938 54.601562 C 233.210938 54.910156 234.179688 55.308594 235.160156 55.683594 C 236.140625 56.058594 237.121094 56.4375 238.101562 56.816406 C 240.078125 57.53125 241.980469 58.449219 243.910156 59.292969 C 259.28125 66.226562 273.5 76.03125 285.035156 87.652344 C 290.691406 93.328125 295.832031 99.445312 300.449219 105.996094 C 301.554688 107.597656 302.699219 109.152344 303.6875 110.792969 C 304.199219 111.601562 304.707031 112.40625 305.210938 113.210938 C 305.710938 114.015625 306.234375 114.800781 306.679688 115.628906 C 307.605469 117.265625 308.519531 118.882812 309.425781 120.488281 C 310.269531 122.121094 311.078125 123.753906 311.890625 125.363281 C 312.089844 125.761719 312.292969 126.164062 312.492188 126.5625 C 312.675781 126.972656 312.859375 127.378906 313.039062 127.785156 C 313.402344 128.597656 313.761719 129.40625 314.121094 130.210938 C 314.476562 131.011719 314.832031 131.808594 315.183594 132.601562 C 315.5 133.410156 315.8125 134.210938 316.125 135.007812 C 316.4375 135.804688 316.746094 136.597656 317.050781 137.386719 C 317.355469 138.171875 317.671875 138.949219 317.921875 139.742188 C 318.449219 141.316406 318.96875 142.871094 319.480469 144.398438 C 319.75 145.160156 319.957031 145.933594 320.171875 146.695312 C 320.386719 147.457031 320.601562 148.210938 320.8125 148.960938 C 321.027344 149.710938 321.234375 150.453125 321.441406 151.191406 C 321.65625 151.921875 321.796875 152.667969 321.976562 153.398438 C 322.316406 154.859375 322.644531 156.292969 322.96875 157.695312 C 323.269531 159.105469 323.492188 160.5 323.746094 161.855469 C 325.300781 170.488281 326.003906 179.1875 325.863281 187.960938 C 325.824219 189.515625 325.835938 190.902344 325.769531 192.101562 C 325.6875 193.300781 325.621094 194.316406 325.570312 195.136719 C 325.460938 196.777344 325.402344 197.644531 325.402344 197.644531 Z M 325.402344 197.644531 " fill-opacity="1" fill-rule="nonzero"/>
</g>
<path fill="#ff5757" d="M 305.191406 227.984375 C 305.191406 227.984375 305.414062 227.238281 305.839844 225.816406 C 306.054688 225.109375 306.320312 224.230469 306.632812 223.195312 C 306.78125 222.679688 306.972656 222.128906 307.117188 221.523438 C 307.265625 220.921875 307.425781 220.28125 307.589844 219.601562 C 309.574219 211.992188 310.78125 204.261719 311.210938 196.414062 C 311.261719 195.183594 311.3125 193.921875 311.367188 192.636719 C 311.449219 191.351562 311.414062 190.039062 311.402344 188.699219 C 311.398438 188.03125 311.390625 187.355469 311.386719 186.671875 C 311.382812 186.332031 311.382812 185.988281 311.378906 185.644531 L 311.375 185.128906 L 311.34375 184.609375 C 311.261719 183.222656 311.179688 181.8125 311.097656 180.378906 C 311.078125 180.019531 311.058594 179.660156 311.035156 179.296875 C 311.015625 178.9375 310.964844 178.578125 310.929688 178.214844 C 310.851562 177.488281 310.773438 176.757812 310.691406 176.023438 C 310.53125 174.550781 310.40625 173.054688 310.136719 171.550781 C 309.890625 170.046875 309.671875 168.519531 309.40625 166.980469 C 309.089844 165.453125 308.769531 163.90625 308.445312 162.339844 C 306.964844 155.835938 304.992188 149.492188 302.523438 143.296875 C 302.191406 142.503906 301.855469 141.707031 301.523438 140.90625 L 301.019531 139.707031 C 300.851562 139.304688 300.691406 138.898438 300.496094 138.507812 C 299.746094 136.933594 298.992188 135.347656 298.234375 133.75 C 297.402344 132.191406 296.5625 130.625 295.722656 129.050781 L 295.40625 128.460938 C 295.296875 128.265625 295.179688 128.074219 295.066406 127.882812 L 294.375 126.730469 C 293.914062 125.960938 293.453125 125.191406 292.988281 124.417969 C 289.136719 118.195312 284.769531 112.363281 279.886719 106.917969 C 274.949219 101.414062 269.5625 96.402344 263.71875 91.875 L 261.511719 90.222656 C 260.769531 89.679688 260.0625 89.09375 259.289062 88.601562 C 257.765625 87.582031 256.261719 86.542969 254.738281 85.542969 C 253.179688 84.597656 251.621094 83.65625 250.070312 82.71875 C 248.492188 81.828125 246.886719 80.996094 245.308594 80.136719 C 239.019531 76.910156 232.503906 74.226562 225.765625 72.089844 C 219.210938 69.960938 212.648438 68.59375 206.320312 67.675781 C 203.164062 67.160156 200.035156 66.960938 197.003906 66.679688 C 193.953125 66.574219 190.988281 66.378906 188.105469 66.476562 C 185.226562 66.4375 182.4375 66.6875 179.75 66.828125 C 178.40625 66.929688 177.09375 67.109375 175.804688 67.238281 L 173.890625 67.441406 C 173.257812 67.5 172.640625 67.632812 172.023438 67.71875 C 170.796875 67.914062 169.59375 68.105469 168.421875 68.289062 C 167.832031 68.371094 167.257812 68.492188 166.6875 68.617188 C 166.121094 68.734375 165.558594 68.851562 165.007812 68.96875 C 163.898438 69.207031 162.816406 69.414062 161.773438 69.652344 L 158.753906 70.441406 C 158.253906 70.566406 157.734375 70.699219 157.207031 70.832031 C 156.941406 70.894531 156.675781 70.957031 156.410156 71.019531 C 156.144531 71.085938 155.882812 71.15625 155.617188 71.226562 C 154.613281 71.496094 153.59375 71.667969 152.558594 71.742188 C 151.679688 71.820312 150.832031 71.699219 150.011719 71.382812 C 149.640625 71.210938 149.320312 70.972656 149.050781 70.667969 C 148.78125 70.363281 148.585938 70.015625 148.460938 69.628906 C 148.335938 69.242188 148.292969 68.847656 148.332031 68.441406 C 148.371094 68.039062 148.488281 67.65625 148.6875 67.300781 C 149.089844 66.609375 149.804688 66.066406 150.683594 65.566406 C 151.652344 65.050781 152.65625 64.625 153.703125 64.289062 C 153.976562 64.195312 154.25 64.101562 154.53125 64.023438 C 154.808594 63.953125 155.089844 63.882812 155.371094 63.8125 C 155.929688 63.679688 156.484375 63.550781 157.015625 63.425781 C 158.058594 63.1875 159.132812 62.941406 160.238281 62.691406 C 161.351562 62.46875 162.503906 62.28125 163.683594 62.066406 C 164.273438 61.960938 164.867188 61.855469 165.472656 61.746094 C 166.078125 61.636719 166.6875 61.523438 167.3125 61.457031 C 168.558594 61.296875 169.835938 61.132812 171.140625 60.964844 C 171.792969 60.890625 172.449219 60.773438 173.117188 60.730469 C 173.789062 60.675781 174.464844 60.621094 175.144531 60.570312 C 176.511719 60.46875 177.898438 60.324219 179.320312 60.257812 C 182.160156 60.1875 185.097656 60.015625 188.132812 60.136719 C 191.167969 60.125 194.28125 60.410156 197.476562 60.613281 C 200.660156 60.996094 203.929688 61.300781 207.226562 61.933594 C 213.828125 63.074219 220.644531 64.699219 227.410156 67.101562 C 234.359375 69.515625 241.058594 72.492188 247.507812 76.023438 C 249.125 76.964844 250.765625 77.871094 252.375 78.839844 C 253.957031 79.855469 255.542969 80.875 257.132812 81.894531 C 258.683594 82.976562 260.210938 84.09375 261.757812 85.191406 C 262.542969 85.722656 263.261719 86.347656 264.011719 86.925781 L 266.246094 88.699219 C 272.09375 93.488281 277.472656 98.761719 282.378906 104.515625 C 287.285156 110.269531 291.640625 116.410156 295.445312 122.945312 C 295.894531 123.75 296.347656 124.550781 296.796875 125.347656 L 297.472656 126.546875 C 297.582031 126.746094 297.699219 126.941406 297.804688 127.144531 L 298.113281 127.757812 C 298.929688 129.386719 299.738281 131.011719 300.546875 132.625 C 301.277344 134.273438 302.003906 135.910156 302.726562 137.539062 C 302.914062 137.941406 303.066406 138.359375 303.230469 138.773438 L 303.707031 140.011719 C 304.027344 140.832031 304.34375 141.652344 304.660156 142.472656 C 307.003906 148.832031 308.835938 155.332031 310.164062 161.976562 C 310.453125 163.574219 310.734375 165.148438 311.015625 166.707031 C 311.242188 168.273438 311.425781 169.828125 311.628906 171.355469 C 311.863281 172.878906 311.949219 174.398438 312.074219 175.890625 C 312.136719 176.636719 312.195312 177.378906 312.253906 178.113281 C 312.28125 178.480469 312.324219 178.84375 312.335938 179.210938 C 312.347656 179.574219 312.359375 179.941406 312.367188 180.304688 C 312.414062 181.753906 312.460938 183.179688 312.503906 184.582031 L 312.519531 185.105469 L 312.511719 185.625 C 312.503906 185.972656 312.5 186.320312 312.492188 186.664062 C 312.480469 187.351562 312.46875 188.035156 312.453125 188.707031 C 312.429688 190.058594 312.429688 191.382812 312.3125 192.675781 C 312.226562 193.96875 312.140625 195.234375 312.054688 196.472656 C 311.417969 204.34375 310.003906 212.074219 307.8125 219.660156 C 307.628906 220.335938 307.453125 220.972656 307.289062 221.574219 C 307.128906 222.171875 306.917969 222.71875 306.757812 223.234375 C 306.417969 224.261719 306.128906 225.132812 305.898438 225.835938 C 305.433594 227.242188 305.191406 227.984375 305.191406 227.984375 Z M 305.191406 227.984375 " fill-opacity="1" fill-rule="nonzero"/>
<path fill="#ff5757" d="M 171.550781 296.226562 C 171.550781 296.226562 172.238281 296.304688 173.539062 296.457031 C 174.1875 296.535156 174.992188 296.628906 175.9375 296.738281 C 176.886719 296.839844 177.988281 296.886719 179.21875 296.980469 C 186.152344 297.441406 193.0625 297.234375 199.953125 296.351562 C 201.035156 296.203125 202.140625 296.082031 203.265625 295.902344 C 204.386719 295.703125 205.527344 295.5 206.695312 295.289062 C 207.277344 295.179688 207.867188 295.097656 208.457031 294.957031 C 209.042969 294.824219 209.636719 294.6875 210.234375 294.550781 C 210.832031 294.414062 211.4375 294.273438 212.046875 294.136719 C 212.65625 293.996094 213.269531 293.863281 213.878906 293.683594 C 215.101562 293.339844 216.34375 292.992188 217.605469 292.640625 C 218.238281 292.476562 218.859375 292.257812 219.492188 292.046875 C 220.121094 291.839844 220.757812 291.628906 221.394531 291.417969 C 222.035156 291.203125 222.675781 290.988281 223.320312 290.769531 C 223.957031 290.527344 224.597656 290.28125 225.242188 290.03125 C 225.886719 289.78125 226.535156 289.53125 227.1875 289.28125 C 227.511719 289.152344 227.839844 289.027344 228.167969 288.898438 C 228.488281 288.757812 228.8125 288.617188 229.132812 288.472656 C 234.5625 286.175781 239.765625 283.449219 244.742188 280.285156 C 250.027344 276.941406 254.996094 273.175781 259.640625 268.988281 C 269.132812 260.472656 277.265625 249.835938 283.203125 238.253906 C 283.925781 236.796875 284.707031 235.367188 285.335938 233.871094 C 285.664062 233.128906 285.992188 232.390625 286.320312 231.648438 C 286.644531 230.910156 286.992188 230.179688 287.265625 229.417969 C 287.84375 227.914062 288.421875 226.410156 288.996094 224.914062 C 289.496094 223.390625 289.992188 221.871094 290.488281 220.355469 C 292.304688 214.371094 293.601562 208.273438 294.375 202.066406 C 294.460938 201.3125 294.550781 200.558594 294.636719 199.808594 C 294.679688 199.433594 294.722656 199.058594 294.765625 198.683594 C 294.789062 198.308594 294.816406 197.933594 294.839844 197.5625 C 294.933594 196.066406 295.054688 194.582031 295.121094 193.109375 C 295.144531 191.636719 295.167969 190.175781 295.195312 188.730469 C 295.222656 188.007812 295.164062 187.289062 295.152344 186.574219 C 295.128906 185.855469 295.105469 185.144531 295.082031 184.4375 C 295.066406 183.019531 294.921875 181.625 294.816406 180.246094 C 294.757812 179.554688 294.703125 178.867188 294.648438 178.1875 C 294.601562 177.503906 294.484375 176.832031 294.40625 176.160156 C 294.222656 174.824219 294.078125 173.496094 293.867188 172.199219 C 293.632812 170.90625 293.40625 169.632812 293.179688 168.375 C 293.121094 168.0625 293.070312 167.746094 293.003906 167.4375 C 292.933594 167.128906 292.863281 166.820312 292.792969 166.515625 C 292.652344 165.902344 292.511719 165.292969 292.375 164.691406 C 292.234375 164.089844 292.097656 163.492188 291.960938 162.902344 C 291.835938 162.308594 291.644531 161.734375 291.492188 161.15625 C 291.167969 160.007812 290.851562 158.878906 290.539062 157.773438 C 290.199219 156.675781 289.828125 155.613281 289.484375 154.566406 C 289.136719 153.519531 288.804688 152.496094 288.402344 151.519531 C 288.023438 150.539062 287.652344 149.578125 287.289062 148.644531 C 286.945312 147.703125 286.511719 146.824219 286.136719 145.953125 C 285.75 145.085938 285.378906 144.246094 285.015625 143.429688 C 284.210938 141.78125 283.269531 139.902344 282.847656 138.257812 C 282.371094 136.644531 282.433594 135.234375 283.730469 134.515625 C 285.023438 133.796875 286.261719 134.535156 287.40625 135.898438 C 288.492188 137.289062 289.453125 139.304688 290.246094 141.058594 C 290.605469 141.925781 290.976562 142.824219 291.359375 143.746094 C 291.726562 144.675781 292.15625 145.609375 292.492188 146.609375 C 292.847656 147.601562 293.214844 148.621094 293.585938 149.664062 C 293.976562 150.699219 294.300781 151.785156 294.636719 152.894531 C 294.96875 154.003906 295.328125 155.128906 295.65625 156.289062 C 295.953125 157.457031 296.257812 158.648438 296.566406 159.863281 C 296.710938 160.46875 296.890625 161.074219 297.007812 161.703125 C 297.136719 162.328125 297.265625 162.957031 297.394531 163.589844 C 297.523438 164.226562 297.652344 164.863281 297.785156 165.507812 C 297.851562 165.832031 297.914062 166.15625 297.980469 166.480469 C 298.039062 166.808594 298.085938 167.136719 298.136719 167.464844 C 298.339844 168.789062 298.546875 170.128906 298.757812 171.488281 C 298.941406 172.847656 299.058594 174.238281 299.214844 175.644531 C 299.277344 176.347656 299.378906 177.050781 299.414062 177.761719 C 299.453125 178.476562 299.496094 179.195312 299.535156 179.917969 C 299.613281 181.359375 299.722656 182.820312 299.703125 184.296875 C 299.710938 185.039062 299.714844 185.78125 299.722656 186.527344 C 299.714844 187.273438 299.753906 188.023438 299.707031 188.777344 C 299.644531 190.28125 299.582031 191.800781 299.515625 193.335938 C 299.410156 194.867188 299.25 196.40625 299.113281 197.957031 C 299.078125 198.347656 299.039062 198.734375 299.003906 199.125 C 298.949219 199.511719 298.894531 199.902344 298.84375 200.289062 C 298.730469 201.066406 298.621094 201.847656 298.511719 202.632812 C 297.550781 209.042969 296.054688 215.328125 294.019531 221.484375 C 293.46875 223.035156 292.917969 224.59375 292.363281 226.15625 C 291.730469 227.6875 291.097656 229.222656 290.464844 230.761719 C 290.160156 231.539062 289.785156 232.285156 289.433594 233.039062 C 289.078125 233.792969 288.71875 234.546875 288.363281 235.300781 C 287.679688 236.828125 286.839844 238.28125 286.054688 239.761719 C 279.652344 251.539062 271.042969 262.234375 261.148438 270.695312 C 256.3125 274.847656 251.164062 278.5625 245.695312 281.835938 C 240.574219 284.925781 235.230469 287.566406 229.667969 289.765625 C 229.335938 289.902344 229.003906 290.039062 228.675781 290.175781 C 228.34375 290.292969 228.007812 290.414062 227.675781 290.535156 C 227.011719 290.773438 226.347656 291.011719 225.691406 291.25 C 225.035156 291.484375 224.378906 291.71875 223.730469 291.949219 C 223.070312 292.152344 222.417969 292.355469 221.765625 292.558594 C 221.117188 292.757812 220.46875 292.953125 219.828125 293.148438 C 219.1875 293.34375 218.550781 293.550781 217.910156 293.699219 C 216.628906 294.027344 215.367188 294.347656 214.125 294.664062 C 213.503906 294.832031 212.878906 294.949219 212.261719 295.078125 C 211.644531 295.203125 211.035156 295.328125 210.425781 295.453125 C 209.820312 295.574219 209.21875 295.699219 208.625 295.820312 C 208.027344 295.945312 207.429688 296.015625 206.839844 296.113281 C 205.660156 296.296875 204.507812 296.472656 203.375 296.648438 C 202.238281 296.804688 201.121094 296.898438 200.03125 297.019531 C 193.09375 297.742188 186.152344 297.789062 179.207031 297.160156 C 177.972656 297.039062 176.875 296.964844 175.925781 296.84375 C 174.980469 296.710938 174.179688 296.597656 173.53125 296.503906 C 172.234375 296.320312 171.550781 296.226562 171.550781 296.226562 Z M 171.550781 296.226562 " fill-opacity="1" fill-rule="nonzero"/>
<path fill="#00bf63" d="M 148.679688 278.417969 C 148.679688 278.417969 149.261719 278.640625 150.363281 279.0625 C 150.914062 279.273438 151.59375 279.535156 152.394531 279.84375 C 152.796875 279.992188 153.222656 280.175781 153.691406 280.328125 C 154.160156 280.480469 154.660156 280.644531 155.191406 280.816406 C 161.105469 282.835938 167.164062 284.246094 173.363281 285.046875 C 175.3125 285.253906 177.339844 285.566406 179.46875 285.65625 C 180.53125 285.714844 181.613281 285.816406 182.71875 285.847656 C 183.820312 285.867188 184.945312 285.882812 186.085938 285.902344 C 187.226562 285.949219 188.386719 285.863281 189.5625 285.835938 C 190.742188 285.792969 191.933594 285.785156 193.140625 285.65625 C 194.347656 285.554688 195.570312 285.46875 196.808594 285.347656 C 198.039062 285.1875 199.285156 285.023438 200.546875 284.859375 C 210.59375 283.34375 221.371094 280.1875 231.527344 274.835938 C 236.6875 272.152344 241.570312 269.03125 246.175781 265.480469 C 250.828125 261.890625 255.121094 257.914062 259.054688 253.546875 C 262.953125 249.238281 266.414062 244.601562 269.445312 239.644531 C 272.375 234.847656 274.882812 229.839844 276.976562 224.625 C 278.953125 219.703125 280.503906 214.652344 281.617188 209.46875 C 282.214844 206.996094 282.554688 204.53125 282.957031 202.140625 C 283.222656 199.730469 283.546875 197.390625 283.640625 195.101562 C 283.839844 192.820312 283.808594 190.59375 283.855469 188.457031 C 283.851562 187.386719 283.789062 186.332031 283.761719 185.304688 C 283.746094 184.789062 283.726562 184.277344 283.710938 183.773438 C 283.703125 183.269531 283.636719 182.773438 283.601562 182.277344 C 283.519531 181.292969 283.441406 180.328125 283.363281 179.386719 C 283.332031 178.914062 283.269531 178.453125 283.207031 177.996094 C 283.144531 177.539062 283.085938 177.085938 283.023438 176.640625 C 282.902344 175.75 282.800781 174.878906 282.671875 174.039062 C 282.519531 173.199219 282.371094 172.386719 282.226562 171.597656 C 282.152344 171.191406 282.082031 170.773438 282.003906 170.347656 C 281.972656 170.136719 281.9375 169.921875 281.90625 169.707031 L 281.785156 169.066406 C 281.632812 168.253906 281.554688 167.4375 281.554688 166.609375 C 281.546875 165.910156 281.695312 165.242188 281.992188 164.609375 C 282.152344 164.328125 282.359375 164.089844 282.617188 163.894531 C 282.875 163.699219 283.160156 163.5625 283.472656 163.484375 C 283.789062 163.410156 284.105469 163.398438 284.421875 163.453125 C 284.742188 163.507812 285.035156 163.625 285.304688 163.800781 C 285.832031 164.160156 286.21875 164.761719 286.5625 165.484375 C 286.917969 166.285156 287.195312 167.109375 287.402344 167.957031 C 287.457031 168.179688 287.515625 168.402344 287.5625 168.625 C 287.601562 168.851562 287.640625 169.078125 287.679688 169.304688 C 287.75 169.757812 287.820312 170.203125 287.890625 170.632812 C 288.015625 171.472656 288.148438 172.339844 288.285156 173.230469 C 288.394531 174.128906 288.476562 175.050781 288.574219 176 C 288.625 176.472656 288.675781 176.949219 288.722656 177.4375 C 288.777344 177.921875 288.828125 178.414062 288.847656 178.914062 C 288.898438 179.910156 288.957031 180.929688 289.011719 181.976562 C 289.03125 182.496094 289.085938 183.023438 289.082031 183.558594 C 289.082031 184.089844 289.085938 184.628906 289.089844 185.171875 C 289.085938 186.261719 289.121094 187.371094 289.089844 188.5 C 288.980469 190.757812 288.941406 193.097656 288.667969 195.496094 C 288.5 197.902344 288.089844 200.355469 287.738281 202.875 C 287.25 205.375 286.816406 207.949219 286.121094 210.523438 C 284.804688 215.90625 283.039062 221.140625 280.832031 226.222656 C 278.511719 231.589844 275.757812 236.722656 272.574219 241.628906 C 269.296875 246.679688 265.582031 251.382812 261.425781 255.738281 C 253.070312 264.519531 243.445312 271.5625 232.550781 276.871094 C 222.015625 282.0625 210.957031 284.976562 200.734375 286.246094 C 199.449219 286.378906 198.183594 286.511719 196.929688 286.640625 C 195.675781 286.730469 194.433594 286.78125 193.210938 286.855469 C 191.988281 286.949219 190.777344 286.929688 189.585938 286.941406 C 188.394531 286.9375 187.222656 286.992188 186.070312 286.914062 C 184.917969 286.863281 183.785156 286.816406 182.671875 286.769531 C 181.558594 286.707031 180.46875 286.578125 179.398438 286.488281 C 177.257812 286.339844 175.21875 285.972656 173.265625 285.714844 C 167.0625 284.746094 161.015625 283.167969 155.128906 280.988281 C 154.605469 280.800781 154.109375 280.625 153.644531 280.457031 C 153.175781 280.296875 152.757812 280.097656 152.355469 279.9375 C 151.5625 279.609375 150.890625 279.332031 150.34375 279.105469 C 149.257812 278.65625 148.679688 278.417969 148.679688 278.417969 Z M 148.679688 278.417969 " fill-opacity="1" fill-rule="nonzero"/>
<path fill="#00bf63" d="M 203.699219 78.964844 C 203.699219 78.964844 203.015625 78.882812 201.714844 78.730469 C 201.066406 78.65625 200.261719 78.5625 199.3125 78.453125 C 198.367188 78.351562 197.265625 78.300781 196.035156 78.210938 C 189.101562 77.75 182.191406 77.957031 175.296875 78.839844 C 174.21875 78.988281 173.109375 79.105469 171.988281 79.289062 C 170.867188 79.488281 169.726562 79.691406 168.558594 79.898438 C 167.976562 80.011719 167.382812 80.09375 166.796875 80.234375 C 166.210938 80.367188 165.617188 80.503906 165.015625 80.640625 C 164.417969 80.777344 163.816406 80.914062 163.207031 81.054688 C 162.597656 81.195312 161.980469 81.324219 161.375 81.507812 C 160.152344 81.851562 158.910156 82.199219 157.648438 82.550781 C 157.015625 82.714844 156.390625 82.933594 155.761719 83.140625 C 155.132812 83.351562 154.496094 83.5625 153.859375 83.773438 C 153.21875 83.988281 152.578125 84.203125 151.929688 84.417969 C 151.292969 84.664062 150.652344 84.910156 150.007812 85.160156 C 149.367188 85.40625 148.71875 85.660156 148.066406 85.910156 C 147.738281 86.035156 147.414062 86.164062 147.085938 86.289062 C 146.765625 86.433594 146.441406 86.574219 146.117188 86.71875 C 140.6875 89.011719 135.484375 91.742188 130.511719 94.90625 C 125.222656 98.25 120.257812 102.011719 115.613281 106.203125 C 106.121094 114.71875 97.988281 125.355469 92.050781 136.9375 C 91.324219 138.394531 90.542969 139.820312 89.917969 141.320312 C 89.589844 142.058594 89.261719 142.800781 88.929688 143.539062 C 88.605469 144.28125 88.261719 145.011719 87.988281 145.769531 C 87.410156 147.277344 86.832031 148.777344 86.257812 150.277344 C 85.757812 151.800781 85.257812 153.320312 84.761719 154.832031 C 82.949219 160.820312 81.652344 166.914062 80.878906 173.121094 C 80.792969 173.878906 80.703125 174.632812 80.617188 175.382812 C 80.574219 175.757812 80.53125 176.132812 80.488281 176.503906 C 80.460938 176.878906 80.4375 177.253906 80.410156 177.628906 C 80.316406 179.125 80.199219 180.609375 80.132812 182.078125 C 80.109375 183.554688 80.082031 185.011719 80.058594 186.460938 C 80.03125 187.183594 80.089844 187.902344 80.101562 188.617188 C 80.125 189.332031 80.148438 190.042969 80.167969 190.753906 C 80.1875 192.171875 80.328125 193.566406 80.4375 194.945312 C 80.492188 195.636719 80.550781 196.320312 80.605469 197.003906 C 80.652344 197.6875 80.769531 198.359375 80.847656 199.027344 C 81.03125 200.367188 81.175781 201.691406 81.386719 202.988281 C 81.617188 204.285156 81.847656 205.558594 82.074219 206.816406 C 82.132812 207.128906 82.183594 207.445312 82.246094 207.753906 C 82.316406 208.0625 82.386719 208.371094 82.457031 208.675781 C 82.597656 209.289062 82.738281 209.894531 82.878906 210.496094 C 83.015625 211.101562 83.152344 211.695312 83.289062 212.289062 C 83.417969 212.882812 83.605469 213.457031 83.761719 214.035156 C 84.082031 215.183594 84.402344 216.308594 84.710938 217.414062 C 85.054688 218.511719 85.425781 219.578125 85.769531 220.625 C 86.117188 221.667969 86.449219 222.695312 86.847656 223.671875 C 87.230469 224.652344 87.601562 225.609375 87.964844 226.546875 C 88.308594 227.488281 88.742188 228.363281 89.117188 229.234375 C 89.5 230.101562 89.875 230.945312 90.238281 231.761719 C 91.042969 233.40625 91.984375 235.289062 92.402344 236.933594 C 92.878906 238.546875 92.816406 239.957031 91.523438 240.675781 C 90.230469 241.394531 88.992188 240.652344 87.847656 239.289062 C 86.761719 237.898438 85.800781 235.886719 85.007812 234.132812 C 84.648438 233.261719 84.277344 232.367188 83.894531 231.441406 C 83.523438 230.515625 83.09375 229.582031 82.757812 228.578125 C 82.402344 227.585938 82.039062 226.570312 81.667969 225.527344 C 81.273438 224.492188 80.953125 223.402344 80.617188 222.296875 C 80.28125 221.1875 79.921875 220.0625 79.59375 218.902344 C 79.296875 217.734375 78.996094 216.542969 78.6875 215.328125 C 78.542969 214.71875 78.359375 214.113281 78.242188 213.488281 C 78.117188 212.863281 77.988281 212.234375 77.859375 211.601562 C 77.730469 210.964844 77.597656 210.324219 77.46875 209.679688 C 77.402344 209.359375 77.335938 209.035156 77.273438 208.710938 C 77.214844 208.382812 77.167969 208.054688 77.113281 207.722656 C 76.910156 206.402344 76.707031 205.0625 76.496094 203.703125 C 76.3125 202.339844 76.195312 200.949219 76.039062 199.546875 C 75.972656 198.84375 75.871094 198.140625 75.839844 197.425781 C 75.800781 196.714844 75.757812 195.996094 75.71875 195.273438 C 75.640625 193.828125 75.53125 192.371094 75.546875 190.890625 C 75.542969 190.152344 75.535156 189.410156 75.53125 188.664062 C 75.535156 187.917969 75.496094 187.167969 75.542969 186.414062 C 75.609375 184.910156 75.671875 183.386719 75.734375 181.855469 C 75.84375 180.324219 76.003906 178.785156 76.140625 177.230469 C 76.175781 176.84375 76.210938 176.453125 76.246094 176.066406 C 76.300781 175.675781 76.355469 175.289062 76.410156 174.898438 C 76.519531 174.121094 76.628906 173.34375 76.742188 172.558594 C 77.703125 166.144531 79.199219 159.863281 81.230469 153.703125 C 81.785156 152.152344 82.335938 150.597656 82.890625 149.035156 C 83.523438 147.503906 84.152344 145.96875 84.789062 144.429688 C 85.089844 143.652344 85.464844 142.90625 85.820312 142.152344 C 86.175781 141.398438 86.535156 140.644531 86.890625 139.886719 C 87.574219 138.363281 88.414062 136.910156 89.195312 135.429688 C 95.601562 123.652344 104.210938 112.957031 114.105469 104.496094 C 118.9375 100.34375 124.089844 96.628906 129.558594 93.355469 C 134.679688 90.265625 140.023438 87.621094 145.585938 85.425781 C 145.917969 85.289062 146.246094 85.152344 146.574219 85.015625 C 146.910156 84.894531 147.246094 84.773438 147.578125 84.65625 C 148.242188 84.414062 148.902344 84.175781 149.5625 83.941406 C 150.21875 83.707031 150.871094 83.472656 151.523438 83.238281 C 152.179688 83.035156 152.835938 82.835938 153.484375 82.632812 C 154.136719 82.433594 154.78125 82.238281 155.425781 82.039062 C 156.066406 81.847656 156.699219 81.640625 157.34375 81.488281 C 158.625 81.164062 159.886719 80.84375 161.128906 80.527344 C 161.746094 80.355469 162.371094 80.242188 162.988281 80.113281 C 163.605469 79.988281 164.21875 79.863281 164.824219 79.738281 C 165.433594 79.613281 166.035156 79.492188 166.628906 79.371094 C 167.222656 79.246094 167.824219 79.175781 168.410156 79.078125 C 169.589844 78.894531 170.746094 78.714844 171.878906 78.542969 C 173.015625 78.386719 174.132812 78.292969 175.222656 78.171875 C 182.160156 77.449219 189.101562 77.402344 196.046875 78.03125 C 197.28125 78.148438 198.378906 78.226562 199.324219 78.347656 C 200.269531 78.480469 201.074219 78.59375 201.722656 78.683594 C 203.015625 78.867188 203.699219 78.964844 203.699219 78.964844 Z M 203.699219 78.964844 " fill-opacity="1" fill-rule="nonzero"/>
<path fill="#5271ff" d="M 226.570312 96.773438 L 224.890625 96.128906 C 224.339844 95.917969 223.660156 95.65625 222.859375 95.347656 C 222.457031 95.199219 222.03125 95.015625 221.5625 94.863281 C 221.089844 94.710938 220.59375 94.546875 220.0625 94.375 C 214.144531 92.355469 208.089844 90.945312 201.886719 90.140625 C 199.941406 89.9375 197.914062 89.625 195.78125 89.535156 C 194.71875 89.476562 193.640625 89.371094 192.535156 89.34375 C 191.433594 89.324219 190.308594 89.304688 189.167969 89.289062 C 188.023438 89.242188 186.863281 89.328125 185.6875 89.351562 C 184.511719 89.394531 183.316406 89.40625 182.113281 89.53125 C 180.90625 89.636719 179.679688 89.722656 178.445312 89.839844 C 177.214844 90.003906 175.964844 90.164062 174.707031 90.332031 C 164.660156 91.847656 153.878906 95.003906 143.726562 100.351562 C 138.566406 103.039062 133.683594 106.160156 129.078125 109.710938 C 124.425781 113.300781 120.132812 117.277344 116.199219 121.644531 C 112.300781 125.953125 108.835938 130.585938 105.808594 135.546875 C 102.878906 140.34375 100.367188 145.351562 98.277344 150.566406 C 96.296875 155.484375 94.75 160.535156 93.632812 165.71875 C 93.039062 168.191406 92.695312 170.660156 92.292969 173.050781 C 92.03125 175.460938 91.703125 177.796875 91.609375 180.089844 C 91.410156 182.371094 91.445312 184.59375 91.398438 186.734375 C 91.398438 187.804688 91.464844 188.855469 91.488281 189.886719 C 91.507812 190.402344 91.523438 190.910156 91.539062 191.417969 C 91.550781 191.921875 91.617188 192.417969 91.652344 192.910156 C 91.734375 193.898438 91.8125 194.859375 91.890625 195.800781 C 91.921875 196.273438 91.984375 196.738281 92.046875 197.195312 C 92.109375 197.652344 92.167969 198.101562 92.226562 198.550781 C 92.351562 199.441406 92.453125 200.308594 92.578125 201.152344 C 92.734375 201.988281 92.882812 202.804688 93.027344 203.59375 C 93.097656 203.996094 93.171875 204.417969 93.246094 204.84375 C 93.28125 205.054688 93.3125 205.269531 93.347656 205.484375 L 93.464844 206.125 C 93.621094 206.933594 93.699219 207.753906 93.695312 208.582031 C 93.703125 209.28125 93.558594 209.945312 93.257812 210.578125 C 93.101562 210.863281 92.894531 211.101562 92.636719 211.296875 C 92.378906 211.492188 92.09375 211.628906 91.777344 211.707031 C 91.464844 211.78125 91.148438 211.792969 90.828125 211.738281 C 90.511719 211.683594 90.214844 211.566406 89.945312 211.390625 C 89.417969 211.03125 89.03125 210.429688 88.6875 209.703125 C 88.335938 208.90625 88.054688 208.082031 87.851562 207.234375 C 87.796875 207.011719 87.734375 206.789062 87.691406 206.5625 C 87.648438 206.335938 87.609375 206.109375 87.570312 205.886719 C 87.5 205.433594 87.429688 204.988281 87.363281 204.558594 C 87.234375 203.714844 87.105469 202.851562 86.96875 201.957031 C 86.859375 201.0625 86.777344 200.136719 86.675781 199.191406 C 86.628906 198.71875 86.578125 198.238281 86.527344 197.753906 C 86.476562 197.269531 86.421875 196.777344 86.40625 196.277344 C 86.351562 195.28125 86.296875 194.257812 86.242188 193.214844 C 86.21875 192.695312 86.164062 192.167969 86.171875 191.632812 C 86.167969 191.101562 86.167969 190.5625 86.164062 190.015625 C 86.164062 188.929688 86.132812 187.820312 86.160156 186.691406 C 86.273438 184.433594 86.308594 182.09375 86.585938 179.695312 C 86.753906 177.289062 87.164062 174.835938 87.511719 172.316406 C 88.003906 169.816406 88.4375 167.242188 89.132812 164.667969 C 90.449219 159.285156 92.210938 154.050781 94.421875 148.96875 C 96.742188 143.601562 99.496094 138.464844 102.675781 133.5625 C 105.953125 128.511719 109.671875 123.808594 113.828125 119.453125 C 122.179688 110.671875 131.804688 103.625 142.703125 98.320312 C 153.234375 93.128906 164.296875 90.210938 174.519531 88.945312 C 175.800781 88.8125 177.070312 88.679688 178.320312 88.550781 C 179.578125 88.460938 180.820312 88.40625 182.042969 88.335938 C 183.265625 88.238281 184.476562 88.261719 185.664062 88.25 C 186.855469 88.253906 188.027344 88.199219 189.183594 88.277344 C 190.335938 88.324219 191.46875 88.375 192.582031 88.421875 C 193.695312 88.480469 194.78125 88.613281 195.851562 88.703125 C 197.996094 88.851562 200.03125 89.21875 201.988281 89.476562 C 208.191406 90.445312 214.234375 92.019531 220.121094 94.203125 C 220.648438 94.390625 221.144531 94.566406 221.609375 94.730469 C 222.074219 94.894531 222.496094 95.09375 222.894531 95.25 C 223.691406 95.582031 224.363281 95.859375 224.90625 96.085938 Z M 226.570312 96.773438 " fill-opacity="1" fill-rule="nonzero"/>
<path fill="#5271ff" d="M 264.304688 208.917969 C 264.304688 208.917969 264.425781 208.433594 264.652344 207.511719 C 264.765625 207.050781 264.90625 206.480469 265.070312 205.8125 C 265.226562 205.136719 265.359375 204.351562 265.535156 203.472656 C 266.492188 198.53125 266.964844 193.542969 266.949219 188.507812 C 266.941406 187.71875 266.953125 186.914062 266.925781 186.089844 C 266.882812 185.265625 266.835938 184.425781 266.792969 183.566406 C 266.765625 183.140625 266.757812 182.707031 266.710938 182.273438 C 266.667969 181.835938 266.625 181.398438 266.578125 180.957031 C 266.480469 180.070312 266.421875 179.167969 266.28125 178.257812 C 265.761719 174.390625 264.972656 170.578125 263.90625 166.820312 C 261.46875 158.296875 257.714844 150.402344 252.636719 143.136719 C 247.367188 135.546875 240.449219 128.742188 232.652344 123.433594 C 228.785156 120.78125 224.714844 118.5 220.4375 116.585938 C 216.292969 114.742188 212.027344 113.261719 207.632812 112.148438 C 207.097656 112.015625 206.5625 111.886719 206.03125 111.753906 L 205.234375 111.5625 L 204.433594 111.40625 C 203.363281 111.203125 202.308594 110.984375 201.257812 110.804688 C 200.199219 110.65625 199.152344 110.507812 198.113281 110.359375 C 197.074219 110.222656 196.039062 110.15625 195.015625 110.050781 C 193.996094 109.9375 192.980469 109.914062 191.976562 109.867188 C 191.476562 109.847656 190.976562 109.824219 190.480469 109.804688 C 189.988281 109.777344 189.492188 109.800781 189.003906 109.796875 C 188.023438 109.808594 187.058594 109.792969 186.105469 109.828125 C 185.15625 109.878906 184.21875 109.925781 183.292969 109.976562 C 183.0625 109.992188 182.832031 110.003906 182.601562 110.015625 C 182.375 110.039062 182.148438 110.0625 181.921875 110.085938 L 180.574219 110.222656 C 179.679688 110.3125 178.804688 110.394531 177.949219 110.539062 C 177.09375 110.671875 176.257812 110.796875 175.433594 110.921875 C 174.613281 111.066406 173.8125 111.238281 173.03125 111.394531 C 171.457031 111.675781 169.984375 112.097656 168.574219 112.4375 C 167.867188 112.601562 167.195312 112.835938 166.535156 113.023438 C 165.878906 113.222656 165.238281 113.417969 164.617188 113.605469 C 163.363281 114.035156 161.925781 114.542969 160.707031 114.695312 C 159.5 114.894531 158.492188 114.722656 158.09375 113.726562 C 157.691406 112.730469 158.335938 111.910156 159.417969 111.207031 C 160.515625 110.550781 162.050781 110.042969 163.382812 109.628906 C 169.816406 107.742188 176.386719 106.640625 183.085938 106.332031 C 184.054688 106.304688 185.035156 106.273438 186.03125 106.246094 C 187.027344 106.238281 188.039062 106.277344 189.0625 106.292969 C 189.574219 106.308594 190.089844 106.296875 190.605469 106.339844 C 191.121094 106.375 191.640625 106.410156 192.164062 106.445312 C 193.210938 106.519531 194.269531 106.570312 195.332031 106.71875 C 196.394531 106.851562 197.472656 106.949219 198.550781 107.117188 C 199.628906 107.296875 200.71875 107.480469 201.8125 107.664062 C 202.90625 107.878906 204 108.132812 205.101562 108.371094 L 205.933594 108.554688 L 206.753906 108.773438 C 207.304688 108.925781 207.855469 109.074219 208.410156 109.222656 C 212.933594 110.488281 217.320312 112.132812 221.566406 114.148438 C 225.929688 116.230469 230.070312 118.6875 233.992188 121.515625 C 241.886719 127.179688 248.804688 134.332031 254 142.207031 C 258.984375 149.714844 262.613281 157.832031 264.882812 166.554688 C 265.871094 170.375 266.578125 174.25 267.011719 178.171875 C 267.128906 179.089844 267.167969 180.003906 267.246094 180.898438 C 267.277344 181.347656 267.3125 181.789062 267.347656 182.230469 C 267.382812 182.667969 267.378906 183.105469 267.398438 183.535156 C 267.421875 184.402344 267.445312 185.246094 267.46875 186.078125 C 267.480469 186.90625 267.445312 187.71875 267.4375 188.515625 C 267.332031 193.566406 266.742188 198.5625 265.664062 203.5 C 265.46875 204.375 265.316406 205.160156 265.140625 205.828125 C 264.960938 206.496094 264.808594 207.0625 264.683594 207.519531 C 264.4375 208.433594 264.304688 208.917969 264.304688 208.917969 Z M 264.304688 208.917969 " fill-opacity="1" fill-rule="nonzero"/>
<path fill="#8c52ff" d="M 249.441406 223.761719 C 249.441406 223.761719 249.65625 223.363281 250.058594 222.609375 C 250.257812 222.234375 250.507812 221.769531 250.800781 221.21875 C 250.945312 220.941406 251.117188 220.65625 251.265625 220.332031 C 251.417969 220.007812 251.582031 219.660156 251.75 219.296875 C 253.738281 215.226562 255.296875 210.996094 256.429688 206.609375 C 256.753906 205.226562 257.160156 203.800781 257.414062 202.277344 C 257.554688 201.515625 257.726562 200.75 257.847656 199.957031 C 257.957031 199.167969 258.070312 198.359375 258.1875 197.539062 C 258.324219 196.722656 258.367188 195.882812 258.453125 195.035156 C 258.527344 194.183594 258.628906 193.324219 258.648438 192.445312 C 258.679688 191.570312 258.730469 190.683594 258.753906 189.78125 C 258.75 188.882812 258.742188 187.972656 258.738281 187.050781 C 258.550781 179.691406 257.25 171.65625 254.316406 163.875 C 251.34375 155.867188 247.0625 148.632812 241.480469 142.171875 C 235.957031 135.726562 229.226562 130.523438 222.289062 126.683594 C 218.929688 124.820312 215.4375 123.253906 211.808594 121.984375 C 210.082031 121.332031 208.339844 120.867188 206.660156 120.359375 C 204.949219 119.957031 203.296875 119.511719 201.65625 119.238281 C 200.03125 118.886719 198.429688 118.710938 196.894531 118.484375 C 196.125 118.390625 195.363281 118.34375 194.621094 118.269531 C 193.878906 118.199219 193.148438 118.125 192.433594 118.113281 C 191.714844 118.082031 191.015625 118.054688 190.332031 118.027344 C 189.648438 117.988281 188.976562 118.027344 188.324219 118.019531 C 187.671875 118.027344 187.039062 118.023438 186.421875 118.039062 C 185.804688 118.074219 185.207031 118.109375 184.625 118.140625 C 184.03125 118.1875 183.390625 118.1875 182.765625 118.230469 C 182.167969 118.269531 181.574219 118.25 180.980469 118.175781 C 180.476562 118.117188 180.007812 117.953125 179.582031 117.679688 C 179.390625 117.542969 179.238281 117.371094 179.121094 117.167969 C 179.003906 116.964844 178.929688 116.75 178.902344 116.515625 C 178.878906 116.28125 178.898438 116.054688 178.964844 115.828125 C 179.035156 115.605469 179.144531 115.40625 179.296875 115.226562 C 179.601562 114.878906 180.070312 114.65625 180.621094 114.472656 C 181.226562 114.292969 181.84375 114.164062 182.472656 114.09375 C 183.128906 114.023438 183.785156 113.984375 184.441406 113.984375 C 185.058594 113.96875 185.691406 113.949219 186.347656 113.933594 C 187 113.9375 187.671875 113.960938 188.363281 113.972656 C 189.050781 113.996094 189.757812 113.980469 190.480469 114.039062 L 192.699219 114.195312 C 193.457031 114.234375 194.222656 114.332031 195.007812 114.429688 C 195.789062 114.527344 196.589844 114.601562 197.398438 114.726562 C 199.011719 115.007812 200.691406 115.246094 202.390625 115.660156 C 204.105469 115.996094 205.835938 116.511719 207.617188 116.988281 C 209.367188 117.566406 211.179688 118.109375 212.972656 118.839844 C 216.722656 120.273438 220.328125 122.011719 223.785156 124.054688 C 230.90625 128.25 237.742188 133.851562 243.265625 140.660156 C 248.832031 147.457031 253.03125 155.011719 255.871094 163.324219 C 258.65625 171.363281 259.757812 179.578125 259.75 187.042969 C 259.730469 187.976562 259.714844 188.898438 259.695312 189.808594 C 259.644531 190.722656 259.570312 191.617188 259.515625 192.503906 C 259.472656 193.390625 259.347656 194.261719 259.25 195.117188 C 259.140625 195.972656 259.074219 196.820312 258.914062 197.644531 C 258.773438 198.464844 258.640625 199.277344 258.503906 200.074219 C 258.359375 200.867188 258.167969 201.640625 258.007812 202.402344 C 257.710938 203.929688 257.261719 205.359375 256.902344 206.742188 C 255.644531 211.113281 253.96875 215.320312 251.871094 219.355469 C 251.6875 219.714844 251.515625 220.054688 251.355469 220.375 C 251.199219 220.699219 251.015625 220.980469 250.867188 221.253906 C 250.558594 221.796875 250.296875 222.253906 250.085938 222.625 C 249.664062 223.371094 249.441406 223.761719 249.441406 223.761719 Z M 249.441406 223.761719 " fill-opacity="1" fill-rule="nonzero"/>
<path fill="#ff5757" d="M 110.945312 166.273438 C 110.945312 166.273438 110.828125 166.757812 110.601562 167.679688 C 110.488281 168.140625 110.347656 168.707031 110.183594 169.378906 C 110.027344 170.050781 109.890625 170.839844 109.714844 171.714844 C 108.757812 176.660156 108.289062 181.648438 108.304688 186.679688 C 108.3125 187.46875 108.300781 188.277344 108.328125 189.101562 C 108.371094 189.925781 108.414062 190.765625 108.460938 191.621094 C 108.488281 192.050781 108.492188 192.484375 108.542969 192.917969 C 108.585938 193.351562 108.628906 193.792969 108.671875 194.234375 C 108.773438 195.117188 108.832031 196.023438 108.96875 196.933594 C 109.488281 200.800781 110.28125 204.613281 111.34375 208.367188 C 113.78125 216.890625 117.539062 224.785156 122.617188 232.054688 C 127.886719 239.644531 134.804688 246.445312 142.601562 251.757812 C 146.46875 254.40625 150.539062 256.691406 154.816406 258.605469 C 158.957031 260.449219 163.226562 261.929688 167.621094 263.042969 C 168.15625 263.175781 168.691406 263.304688 169.222656 263.433594 L 170.019531 263.628906 L 170.820312 263.785156 C 171.886719 263.984375 172.941406 264.203125 173.996094 264.382812 C 175.054688 264.535156 176.101562 264.683594 177.140625 264.832031 C 178.179688 264.96875 179.214844 265.035156 180.238281 265.136719 C 181.257812 265.253906 182.273438 265.277344 183.277344 265.324219 C 183.777344 265.34375 184.277344 265.367188 184.769531 265.386719 C 185.265625 265.414062 185.757812 265.390625 186.25 265.394531 C 187.226562 265.382812 188.195312 265.398438 189.144531 265.363281 C 190.097656 265.3125 191.035156 265.261719 191.960938 265.214844 C 192.191406 265.199219 192.421875 265.1875 192.648438 265.171875 C 192.878906 265.148438 193.105469 265.125 193.332031 265.101562 C 193.785156 265.058594 194.234375 265.011719 194.679688 264.964844 C 195.570312 264.875 196.449219 264.796875 197.300781 264.648438 C 198.15625 264.519531 198.996094 264.394531 199.820312 264.269531 C 200.640625 264.121094 201.4375 263.949219 202.222656 263.796875 C 203.796875 263.515625 205.265625 263.09375 206.679688 262.75 C 207.386719 262.589844 208.054688 262.355469 208.71875 262.164062 C 209.375 261.964844 210.015625 261.773438 210.632812 261.585938 C 211.890625 261.15625 213.328125 260.648438 214.546875 260.492188 C 215.75 260.296875 216.757812 260.46875 217.160156 261.464844 C 217.558594 262.457031 216.917969 263.28125 215.832031 263.984375 C 214.734375 264.636719 213.203125 265.148438 211.871094 265.5625 C 205.433594 267.449219 198.867188 268.550781 192.167969 268.859375 C 191.199219 268.886719 190.214844 268.914062 189.21875 268.941406 C 188.222656 268.953125 187.210938 268.914062 186.191406 268.898438 C 185.679688 268.882812 185.164062 268.890625 184.648438 268.851562 C 184.128906 268.816406 183.609375 268.78125 183.085938 268.746094 C 182.042969 268.671875 180.984375 268.617188 179.921875 268.472656 C 178.859375 268.339844 177.78125 268.242188 176.699219 268.074219 C 175.621094 267.890625 174.535156 267.710938 173.4375 267.527344 C 172.347656 267.3125 171.253906 267.058594 170.148438 266.820312 L 169.320312 266.636719 L 168.496094 266.414062 C 167.949219 266.265625 167.398438 266.117188 166.84375 265.96875 C 162.316406 264.699219 157.933594 263.058594 153.6875 261.042969 C 149.324219 258.960938 145.179688 256.503906 141.261719 253.675781 C 133.367188 248.011719 126.449219 240.859375 121.253906 232.984375 C 116.269531 225.472656 112.640625 217.359375 110.367188 208.636719 C 109.382812 204.8125 108.675781 200.941406 108.242188 197.019531 C 108.125 196.097656 108.085938 195.183594 108.007812 194.292969 C 107.972656 193.84375 107.941406 193.402344 107.90625 192.960938 C 107.867188 192.523438 107.871094 192.085938 107.855469 191.652344 C 107.828125 190.789062 107.804688 189.941406 107.78125 189.113281 C 107.773438 188.28125 107.804688 187.46875 107.816406 186.675781 C 107.917969 181.625 108.511719 176.628906 109.585938 171.691406 C 109.785156 170.816406 109.9375 170.03125 110.109375 169.363281 C 110.289062 168.695312 110.445312 168.128906 110.566406 167.671875 C 110.816406 166.753906 110.945312 166.273438 110.945312 166.273438 Z M 110.945312 166.273438 " fill-opacity="1" fill-rule="nonzero"/>
<path fill="#8c52ff" d="M 125.808594 151.429688 C 125.808594 151.429688 125.597656 151.828125 125.195312 152.582031 C 124.996094 152.957031 124.746094 153.421875 124.453125 153.96875 C 124.308594 154.246094 124.136719 154.535156 123.988281 154.859375 C 123.835938 155.183594 123.671875 155.527344 123.5 155.894531 C 121.515625 159.964844 119.957031 164.195312 118.820312 168.578125 C 118.5 169.960938 118.09375 171.390625 117.835938 172.914062 C 117.699219 173.671875 117.527344 174.441406 117.40625 175.230469 C 117.292969 176.023438 117.179688 176.828125 117.066406 177.648438 C 116.929688 178.464844 116.886719 179.308594 116.796875 180.15625 C 116.722656 181.003906 116.625 181.867188 116.605469 182.742188 C 116.574219 183.621094 116.523438 184.507812 116.496094 185.40625 C 116.503906 186.308594 116.507812 187.21875 116.515625 188.140625 C 116.703125 195.5 118.003906 203.535156 120.9375 211.316406 C 123.910156 219.324219 128.1875 226.558594 133.773438 233.019531 C 139.296875 239.464844 146.027344 244.667969 152.964844 248.507812 C 156.324219 250.371094 159.816406 251.9375 163.445312 253.207031 C 165.167969 253.859375 166.914062 254.324219 168.59375 254.828125 C 170.304688 255.234375 171.957031 255.679688 173.597656 255.953125 C 175.21875 256.300781 176.820312 256.476562 178.355469 256.703125 C 179.125 256.796875 179.886719 256.847656 180.632812 256.921875 C 181.375 256.988281 182.101562 257.0625 182.820312 257.078125 C 183.535156 257.105469 184.238281 257.136719 184.921875 257.164062 C 185.605469 257.203125 186.277344 257.164062 186.925781 257.167969 C 187.578125 257.160156 188.214844 257.167969 188.832031 257.148438 C 189.449219 257.113281 190.046875 257.082031 190.625 257.046875 C 191.21875 257.003906 191.863281 257.003906 192.484375 256.960938 C 193.082031 256.921875 193.679688 256.941406 194.273438 257.015625 C 194.777344 257.074219 195.242188 257.238281 195.671875 257.507812 C 195.859375 257.648438 196.015625 257.820312 196.132812 258.023438 C 196.25 258.222656 196.320312 258.441406 196.347656 258.675781 C 196.375 258.90625 196.355469 259.136719 196.285156 259.359375 C 196.21875 259.585938 196.109375 259.785156 195.957031 259.964844 C 195.648438 260.308594 195.183594 260.535156 194.632812 260.714844 C 194.027344 260.898438 193.410156 261.027344 192.78125 261.097656 C 192.125 261.167969 191.46875 261.203125 190.8125 261.207031 C 190.195312 261.222656 189.558594 261.238281 188.90625 261.257812 C 188.253906 261.253906 187.582031 261.230469 186.890625 261.21875 C 186.203125 261.191406 185.492188 261.210938 184.769531 261.152344 L 182.554688 260.996094 C 181.796875 260.957031 181.027344 260.859375 180.246094 260.761719 C 179.464844 260.664062 178.664062 260.585938 177.855469 260.464844 C 176.242188 260.179688 174.5625 259.945312 172.859375 259.53125 C 171.144531 259.195312 169.417969 258.679688 167.636719 258.199219 C 165.882812 257.625 164.070312 257.078125 162.28125 256.347656 C 158.527344 254.917969 154.921875 253.179688 151.464844 251.136719 C 144.347656 246.941406 137.511719 241.339844 131.984375 234.527344 C 126.421875 227.730469 122.222656 220.179688 119.382812 211.867188 C 116.597656 203.828125 115.492188 195.613281 115.5 188.148438 C 115.519531 187.214844 115.539062 186.292969 115.558594 185.378906 C 115.609375 184.46875 115.679688 183.570312 115.738281 182.683594 C 115.78125 181.796875 115.902344 180.929688 116.003906 180.074219 C 116.113281 179.21875 116.179688 178.371094 116.339844 177.546875 C 116.476562 176.722656 116.613281 175.914062 116.746094 175.117188 C 116.890625 174.320312 117.085938 173.550781 117.246094 172.789062 C 117.542969 171.261719 117.988281 169.832031 118.351562 168.449219 C 119.605469 164.074219 121.285156 159.871094 123.382812 155.835938 C 123.5625 155.472656 123.734375 155.132812 123.894531 154.8125 C 124.054688 154.492188 124.234375 154.207031 124.386719 153.933594 C 124.695312 153.394531 124.953125 152.933594 125.164062 152.5625 C 125.585938 151.820312 125.808594 151.429688 125.808594 151.429688 Z M 125.808594 151.429688 " fill-opacity="1" fill-rule="nonzero"/>
</svg>